<svg xmlns="http://www.w3.org/2000/svg" width="35" height="35" viewBox="0 0 35 35">
  <g id="Groupe_178" data-name="Groupe 178" transform="translate(-3913.87 19577.242)">
    <g id="icon" transform="translate(3553.87 -19772.242)">
      <circle id="Ellipse_2" data-name="Ellipse 2" cx="17.5" cy="17.5" r="17.5" transform="translate(360 195)" fill="#07bf6f"/>
    </g>
    <path id="Tracé_8792" data-name="Tracé 8792" d="M2278.217,1015.586a2,2,0,0,0-2.83,0l-5.363,5.363-2.66-2.66a.062.062,0,0,1-.012-.016,2,2,0,0,0-2.829,2.829v0l4.089,4.087h0a2,2,0,0,0,2.829,0l6.766-6.767.011-.01A2,2,0,0,0,2278.217,1015.586Z" transform="translate(1660.001 -20580.131)" fill="#fff"/>
  </g>
</svg>
