<svg xmlns="http://www.w3.org/2000/svg" width="35" height="35" viewBox="0 0 35 35">
  <g id="Groupe_182" data-name="Groupe 182" transform="translate(-4045.935 19577.242)">
    <g id="icon" transform="translate(3685.935 -19772.242)">
      <circle id="Ellipse_2" data-name="Ellipse 2" cx="17.5" cy="17.5" r="17.5" transform="translate(360 195)" fill="#357ffa"/>
    </g>
    <g id="Groupe_181" data-name="Groupe 181" transform="translate(98.5 0.162)">
      <g id="Groupe_180" data-name="Groupe 180">
        <path id="Tracé_8796" data-name="Tracé 8796" d="M0,10.191a2,2,0,0,1-2-2V0A2,2,0,0,1,0-2,2,2,0,0,1,2,0V8.191A2,2,0,0,1,0,10.191Z" transform="translate(3964.935 -19561.5)" fill="#fff"/>
        <path id="Tracé_8795" data-name="Tracé 8795" d="M0,2.191a2,2,0,0,1-2-2V0A2,2,0,0,1,0-2,2,2,0,0,1,2,0V.191A2,2,0,0,1,0,2.191Z" transform="translate(3964.935 -19566.5)" fill="#fff"/>
      </g>
    </g>
  </g>
</svg>
