<svg xmlns="http://www.w3.org/2000/svg" width="35" height="35" viewBox="0 0 35 35">
  <g id="Groupe_177" data-name="Groupe 177" transform="translate(-4112 19577)">
    <g id="icon" transform="translate(3752 -19772)">
      <circle id="Ellipse_2" data-name="Ellipse 2" cx="17.5" cy="17.5" r="17.5" transform="translate(360 195)" fill="#f9413a"/>
    </g>
    <path id="Tracé_8788" data-name="Tracé 8788" d="M2396.458,1015.344a2,2,0,0,0-2.83,0l-2.828,2.828-2.825-2.824,0,0a2,2,0,0,0-2.829,2.828l2.829,2.828-2.829,2.828a2,2,0,0,0,2.829,2.83l2.828-2.83,2.828,2.83a2,2,0,0,0,2.83-2.83l0,0-2.826-2.826,2.83-2.828A2,2,0,0,0,2396.458,1015.344Z" transform="translate(1738.699 -20580.742)" fill="#fff"/>
  </g>
</svg>
