<svg id="calendar" xmlns="http://www.w3.org/2000/svg" width="24" height="24" viewBox="0 0 24 24">
  <path id="Vector" d="M20.4,2.4H19.2V1.2a1.2,1.2,0,1,0-2.4,0V2.4H7.2V1.2A1.134,1.134,0,0,0,6,0,1.134,1.134,0,0,0,4.8,1.2V2.4H3.6A3.536,3.536,0,0,0,0,6V7.2H24V6A3.536,3.536,0,0,0,20.4,2.4ZM0,20.4A3.536,3.536,0,0,0,3.6,24H20.4A3.536,3.536,0,0,0,24,20.4V9.6H0ZM18,12a1.134,1.134,0,0,1,1.2,1.2,1.2,1.2,0,1,1-2.4,0A1.134,1.134,0,0,1,18,12Zm0,4.8A1.2,1.2,0,1,1,16.8,18,1.134,1.134,0,0,1,18,16.8ZM12,12a1.134,1.134,0,0,1,1.2,1.2A1.134,1.134,0,0,1,12,14.4a1.134,1.134,0,0,1-1.2-1.2A1.134,1.134,0,0,1,12,12Zm0,4.8a1.2,1.2,0,1,1,0,2.4,1.2,1.2,0,1,1,0-2.4ZM6,12a1.134,1.134,0,0,1,1.2,1.2A1.134,1.134,0,0,1,6,14.4a1.134,1.134,0,0,1-1.2-1.2A1.134,1.134,0,0,1,6,12Zm0,4.8a1.2,1.2,0,1,1,0,2.4,1.2,1.2,0,1,1,0-2.4Z" fill="#fff"/>
</svg> 
