<svg id="Groupe_233" data-name="Groupe 233" xmlns="http://www.w3.org/2000/svg" xmlns:xlink="http://www.w3.org/1999/xlink" width="923" height="1000" viewBox="0 0 923 1000">
  <defs>
    <linearGradient id="linear-gradient" x1="1.032" y1="0.86" x2="0.099" y2="0.197" gradientUnits="objectBoundingBox">
      <stop offset="0.072" stop-color="#e04403" stop-opacity="0.8"/>
      <stop offset="1" stop-color="#e04403"/>
    </linearGradient>
  </defs>
  <g id="Groupe_232" data-name="Groupe 232">
    <rect id="Rectangle_34" data-name="Rectangle 34" width="923" height="1000" fill="#ececec"/>
  </g>
  <g id="Groupe_231" data-name="Groupe 231">
    <g id="Grupo_49" data-name="Grupo 49" transform="translate(106.335 351.176)">
      <path id="Trazado_1" data-name="Trazado 1" d="M74.136,148.7a72.384,72.384,0,0,0,123.27,51.479L182.1,184.69a50.612,50.612,0,1,1,.207-71.783l15.407-15.4A72.4,72.4,0,0,0,74.136,148.7m-35.821,0a108.928,108.928,0,0,0,207.23,46.918l-47.318-47.586H167.506l51.313,51.441a87.788,87.788,0,1,1-9.53-112.853l14.949-14.952A108.908,108.908,0,0,0,38.315,148.705" transform="translate(0 0)" fill="url(#linear-gradient)"/>
      <path id="Trazado_2" data-name="Trazado 2" d="M230.762,138.367c-13.621,0-24.219-9.556-24.219-25.731,0-16.781,11.211-26.554,25.06-26.554,9.921,0,14.82,4.062,15.422,4.669l-2.933,4.669a21.987,21.987,0,0,0-12.118-3.385c-10.234,0-18.509,7.453-18.509,20.017,0,12.337,6.849,20.464,18.059,20.464a20.012,20.012,0,0,0,10.155-2.18V117.812h-10.75v-5.343h17.307v21.144a30.6,30.6,0,0,1-17.473,4.753" transform="translate(37.321 10.298)" fill="#413e3b"/>
      <path id="Trazado_3" data-name="Trazado 3" d="M270.772,138.289c-13.469,0-24.079-9.483-24.079-25.658,0-16.784,11.211-26.554,25.054-26.554,9.921,0,14.826,4.065,15.427,4.669l-2.935,4.669a22.229,22.229,0,0,0-12.115-3.385c-10.231,0-18.506,7.45-18.506,20.014,0,12.256,6.916,20.245,17.984,20.245a25.343,25.343,0,0,0,13.093-3.919l2.918,4.669a26.554,26.554,0,0,1-16.854,5.27" transform="translate(46.222 10.288)" fill="#413e3b"/>
      <path id="Trazado_4" data-name="Trazado 4" d="M331.76,137.127,326.2,121.7H303.468L297.9,137.124h-3.239l18.287-50.189h3.995l18.436,50.189Zm-16.924-46.8-10.23,28.369h20.537Z" transform="translate(56.862 10.472)" fill="#413e3b"/>
      <path id="Trazado_5" data-name="Trazado 5" d="M359.894,116.923H333.559c0,9.253,4.818,15.349,13.242,15.349a20.321,20.321,0,0,0,10.683-3.087l1.506,2.559a22.389,22.389,0,0,1-12.416,3.61c-10.16,0-16.25-7.371-16.25-18.357,0-11.739,6.245-19.037,16.1-19.037,7.677,0,13.621,5.947,13.621,16.706,0,.6-.079,1.43-.152,2.259m-13.469-16.256c-6.548,0-12.256,5.045-12.717,13.4h23.172c0-6.4-3.157-13.4-10.455-13.4" transform="translate(64.774 12.917)" fill="#413e3b"/>
      <path id="Trazado_6" data-name="Trazado 6" d="M369.721,135.509a19.291,19.291,0,0,1-11.442-3.309l1.43-2.48a18.579,18.579,0,0,0,9.711,3.008c6.017,0,9.705-2.711,9.705-7.295a6.242,6.242,0,0,0-2.042-4.669c-3.388-3.388-11.211-3.761-15.127-7.674a8.077,8.077,0,0,1-2.334-6.1c0-5.646,5.118-9.031,11.365-9.031a17.765,17.765,0,0,1,10.16,2.86l-1.436,2.41a16.341,16.341,0,0,0-8.424-2.559c-4.517,0-8.5,2.256-8.5,6.245a5.016,5.016,0,0,0,1.654,4.065c3.388,3.385,11.214,3.758,15.273,7.826a8.261,8.261,0,0,1,2.626,6.32c0,6.621-4.961,10.382-12.638,10.382" transform="translate(70.973 12.916)" fill="#413e3b"/>
      <path id="Trazado_7" data-name="Trazado 7" d="M396.1,137.137a8.947,8.947,0,0,1-6.846-2.334c-2.183-2.183-1.879-6.1-1.879-9.629V103.125h-6.25V100.5h6.247V90.26h3.082v10.233h11.812v2.626H390.449v21.9c0,5.337-.292,9.253,5.944,9.253a13.176,13.176,0,0,0,5.267-1.129l.978,2.486a13.266,13.266,0,0,1-6.545,1.5" transform="translate(76.04 11.209)" fill="#413e3b"/>
      <path id="Trazado_8" data-name="Trazado 8" d="M428.123,137.834V116.32c0-4.745,0-7.981-2.259-10.236a8.879,8.879,0,0,0-6.4-2.107,24.575,24.575,0,0,0-11.739,3.989V137.84h-3.084V83.732h3.079v21.3a22.716,22.716,0,0,1,12.042-3.91,11.173,11.173,0,0,1,8.351,2.857c2.708,2.711,3.081,5.495,3.081,10.91v22.953Z" transform="translate(81.26 9.762)" fill="#413e3b"/>
      <path id="Trazado_9" data-name="Trazado 9" d="M461.5,116.923H435.164c0,9.253,4.818,15.349,13.245,15.349a20.336,20.336,0,0,0,10.683-3.087l1.5,2.559a22.418,22.418,0,0,1-12.416,3.61c-10.155,0-16.253-7.371-16.253-18.357,0-11.739,6.244-19.037,16.1-19.037,7.677,0,13.621,5.947,13.621,16.706,0,.6-.076,1.43-.152,2.259m-13.469-16.256c-6.545,0-12.255,5.045-12.717,13.4h23.172c0-6.4-3.157-13.4-10.455-13.4" transform="translate(87.309 12.917)" fill="#413e3b"/>
      <path id="Trazado_10" data-name="Trazado 10" d="M473.741,137.137a8.959,8.959,0,0,1-6.849-2.334c-2.18-2.183-1.879-6.1-1.879-9.629V103.125h-6.244V100.5h6.244V90.26H468.1v10.233H479.91v2.626H468.1v21.9c0,5.337-.292,9.253,5.944,9.253a13.172,13.172,0,0,0,5.267-1.129l.977,2.486a13.277,13.277,0,0,1-6.545,1.5" transform="translate(93.257 11.209)" fill="#413e3b"/>
      <path id="Trazado_11" data-name="Trazado 11" d="M484.017,90.973a2.334,2.334,0,0,1-2.334-2.334,2.279,2.279,0,0,1,2.334-2.259,2.215,2.215,0,0,1,2.256,2.259,2.282,2.282,0,0,1-2.256,2.334m-1.581,10.382h3.09v35.891h-3.087Z" transform="translate(98.345 10.349)" fill="#413e3b"/>
      <path id="Trazado_12" data-name="Trazado 12" d="M507.353,135.36c-9.483,0-16.557-6.472-16.557-17.759,0-11.511,6.921-19.635,17.531-19.635a16.071,16.071,0,0,1,10.309,3.309l-1.576,2.334a15.132,15.132,0,0,0-8.958-2.626c-8.582,0-14.071,6.627-14.071,15.956,0,9.481,5.717,15.352,13.469,15.352a19,19,0,0,0,10.155-2.781l1.433,2.48a21.345,21.345,0,0,1-11.739,3.385" transform="translate(100.369 12.913)" fill="#413e3b"/>
      <path id="Trazado_13" data-name="Trazado 13" d="M528.959,135.509A19.273,19.273,0,0,1,517.52,132.2l1.427-2.48a18.591,18.591,0,0,0,9.708,3.008c6.017,0,9.705-2.711,9.705-7.295a6.242,6.242,0,0,0-2.042-4.669c-3.388-3.388-11.211-3.761-15.127-7.674a8.09,8.09,0,0,1-2.334-6.1c0-5.646,5.115-9.031,11.363-9.031a17.8,17.8,0,0,1,10.163,2.86l-1.438,2.41a16.342,16.342,0,0,0-8.425-2.559c-4.517,0-8.5,2.256-8.5,6.245a5.017,5.017,0,0,0,1.657,4.065c3.388,3.385,11.211,3.758,15.27,7.826a8.263,8.263,0,0,1,2.626,6.32c0,6.621-4.96,10.382-12.64,10.382" transform="translate(106.295 12.916)" fill="#413e3b"/>
      <path id="Trazado_14" data-name="Trazado 14" d="M67.632,142.057a72.384,72.384,0,0,0,123.273,51.488L175.6,178.05a50.612,50.612,0,1,1,.207-71.783l15.407-15.4A72.4,72.4,0,0,0,67.632,142.057" transform="translate(6.504 6.643)" fill="#e04403"/>
      <path id="Trazado_15" data-name="Trazado 15" d="M230.762,138.367c-13.621,0-24.219-9.556-24.219-25.731,0-16.781,11.211-26.554,25.06-26.554,9.921,0,14.82,4.062,15.422,4.669l-2.933,4.669a21.987,21.987,0,0,0-12.118-3.385c-10.234,0-18.509,7.453-18.509,20.017,0,12.337,6.849,20.464,18.059,20.464a20.012,20.012,0,0,0,10.155-2.18V117.812h-10.75v-5.343h17.307v21.144a30.6,30.6,0,0,1-17.473,4.753" transform="translate(37.321 10.298)" fill="#413e3b"/>
      <path id="Trazado_16" data-name="Trazado 16" d="M270.772,138.289c-13.469,0-24.079-9.483-24.079-25.658,0-16.784,11.211-26.554,25.054-26.554,9.921,0,14.826,4.065,15.427,4.669l-2.935,4.669a22.229,22.229,0,0,0-12.115-3.385c-10.231,0-18.506,7.45-18.506,20.014,0,12.256,6.916,20.245,17.984,20.245a25.343,25.343,0,0,0,13.093-3.919l2.918,4.669a26.554,26.554,0,0,1-16.854,5.27" transform="translate(46.222 10.288)" fill="#413e3b"/>
      <path id="Trazado_17" data-name="Trazado 17" d="M331.76,137.127,326.2,121.7H303.468L297.9,137.124h-3.239l18.287-50.189h3.995l18.436,50.189Zm-16.924-46.8-10.23,28.369h20.537Z" transform="translate(56.862 10.472)" fill="#413e3b"/>
      <path id="Trazado_18" data-name="Trazado 18" d="M359.894,116.923H333.559c0,9.253,4.818,15.349,13.242,15.349a20.321,20.321,0,0,0,10.683-3.087l1.506,2.559a22.389,22.389,0,0,1-12.416,3.61c-10.16,0-16.25-7.371-16.25-18.357,0-11.739,6.245-19.037,16.1-19.037,7.677,0,13.621,5.947,13.621,16.706,0,.6-.079,1.43-.152,2.259m-13.469-16.256c-6.548,0-12.256,5.045-12.717,13.4h23.172c0-6.4-3.157-13.4-10.455-13.4" transform="translate(64.774 12.917)" fill="#413e3b"/>
      <path id="Trazado_19" data-name="Trazado 19" d="M369.721,135.509a19.291,19.291,0,0,1-11.442-3.309l1.43-2.48a18.579,18.579,0,0,0,9.711,3.008c6.017,0,9.705-2.711,9.705-7.295a6.242,6.242,0,0,0-2.042-4.669c-3.388-3.388-11.211-3.761-15.127-7.674a8.077,8.077,0,0,1-2.334-6.1c0-5.646,5.118-9.031,11.365-9.031a17.765,17.765,0,0,1,10.16,2.86l-1.436,2.41a16.341,16.341,0,0,0-8.424-2.559c-4.517,0-8.5,2.256-8.5,6.245a5.016,5.016,0,0,0,1.654,4.065c3.388,3.385,11.214,3.758,15.273,7.826a8.261,8.261,0,0,1,2.626,6.32c0,6.621-4.961,10.382-12.638,10.382" transform="translate(70.973 12.916)" fill="#413e3b"/>
      <path id="Trazado_20" data-name="Trazado 20" d="M396.1,137.137a8.947,8.947,0,0,1-6.846-2.334c-2.183-2.183-1.879-6.1-1.879-9.629V103.125h-6.25V100.5h6.247V90.26h3.082v10.233h11.812v2.626H390.449v21.9c0,5.337-.292,9.253,5.944,9.253a13.176,13.176,0,0,0,5.267-1.129l.978,2.486a13.266,13.266,0,0,1-6.545,1.5" transform="translate(76.04 11.209)" fill="#413e3b"/>
      <path id="Trazado_21" data-name="Trazado 21" d="M428.123,137.834V116.32c0-4.745,0-7.981-2.259-10.236a8.879,8.879,0,0,0-6.4-2.107,24.575,24.575,0,0,0-11.739,3.989V137.84h-3.084V83.732h3.079v21.3a22.716,22.716,0,0,1,12.042-3.91,11.173,11.173,0,0,1,8.351,2.857c2.708,2.711,3.081,5.495,3.081,10.91v22.953Z" transform="translate(81.26 9.762)" fill="#413e3b"/>
      <path id="Trazado_22" data-name="Trazado 22" d="M461.5,116.923H435.164c0,9.253,4.818,15.349,13.245,15.349a20.336,20.336,0,0,0,10.683-3.087l1.5,2.559a22.418,22.418,0,0,1-12.416,3.61c-10.155,0-16.253-7.371-16.253-18.357,0-11.739,6.244-19.037,16.1-19.037,7.677,0,13.621,5.947,13.621,16.706,0,.6-.076,1.43-.152,2.259m-13.469-16.256c-6.545,0-12.255,5.045-12.717,13.4h23.172c0-6.4-3.157-13.4-10.455-13.4" transform="translate(87.309 12.917)" fill="#413e3b"/>
      <path id="Trazado_23" data-name="Trazado 23" d="M473.741,137.137a8.959,8.959,0,0,1-6.849-2.334c-2.18-2.183-1.879-6.1-1.879-9.629V103.125h-6.244V100.5h6.244V90.26H468.1v10.233H479.91v2.626H468.1v21.9c0,5.337-.292,9.253,5.944,9.253a13.172,13.172,0,0,0,5.267-1.129l.977,2.486a13.277,13.277,0,0,1-6.545,1.5" transform="translate(93.257 11.209)" fill="#413e3b"/>
      <path id="Trazado_24" data-name="Trazado 24" d="M484.017,90.973a2.334,2.334,0,0,1-2.334-2.334,2.279,2.279,0,0,1,2.334-2.259,2.215,2.215,0,0,1,2.256,2.259,2.282,2.282,0,0,1-2.256,2.334m-1.581,10.382h3.09v35.891h-3.087Z" transform="translate(98.345 10.349)" fill="#413e3b"/>
      <path id="Trazado_25" data-name="Trazado 25" d="M507.353,135.36c-9.483,0-16.557-6.472-16.557-17.759,0-11.511,6.921-19.635,17.531-19.635a16.071,16.071,0,0,1,10.309,3.309l-1.576,2.334a15.132,15.132,0,0,0-8.958-2.626c-8.582,0-14.071,6.627-14.071,15.956,0,9.481,5.717,15.352,13.469,15.352a19,19,0,0,0,10.155-2.781l1.433,2.48a21.345,21.345,0,0,1-11.739,3.385" transform="translate(100.369 12.913)" fill="#413e3b"/>
      <path id="Trazado_26" data-name="Trazado 26" d="M528.959,135.509A19.273,19.273,0,0,1,517.52,132.2l1.427-2.48a18.591,18.591,0,0,0,9.708,3.008c6.017,0,9.705-2.711,9.705-7.295a6.242,6.242,0,0,0-2.042-4.669c-3.388-3.388-11.211-3.761-15.127-7.674a8.09,8.09,0,0,1-2.334-6.1c0-5.646,5.115-9.031,11.363-9.031a17.8,17.8,0,0,1,10.163,2.86l-1.438,2.41a16.342,16.342,0,0,0-8.425-2.559c-4.517,0-8.5,2.256-8.5,6.245a5.017,5.017,0,0,0,1.657,4.065c3.388,3.385,11.211,3.758,15.27,7.826a8.263,8.263,0,0,1,2.626,6.32c0,6.621-4.96,10.382-12.64,10.382" transform="translate(106.295 12.916)" fill="#413e3b"/>
      <g id="Grupo_2" data-name="Grupo 2" transform="translate(653.765 93.057)">
        <g id="Grupo_1" data-name="Grupo 1" transform="translate(0 0)">
          <path id="Trazado_27" data-name="Trazado 27" d="M542.032,92.485a9.013,9.013,0,0,1,1.214-4.549,8.892,8.892,0,0,1,3.335-3.347,9.136,9.136,0,0,1,9.118,0,8.9,8.9,0,0,1,3.347,3.335A9.125,9.125,0,1,1,542.032,92.5Zm1.491,0a7.66,7.66,0,1,0,1.045-3.843,7.446,7.446,0,0,0-1.044,3.843Zm11.328-2.159A2.8,2.8,0,0,1,553,93.151l2.874,4.815h-2.55l-2.334-4.2h-1.091v4.2H547.6V87.014h3.177a4.766,4.766,0,0,1,3.093.826A3.064,3.064,0,0,1,554.851,90.326ZM549.89,92.01h.838a1.934,1.934,0,0,0,1.357-.423,1.563,1.563,0,0,0,.461-1.211,1.459,1.459,0,0,0-.441-1.22,2.278,2.278,0,0,0-1.4-.347h-.812Z" transform="translate(-542.032 -83.37)" fill="#413e3b"/>
        </g>
      </g>
    </g>
    <path id="Trazado_1-2" data-name="Trazado 1" d="M176.961,461.413a280.161,280.161,0,0,0,477.118,199.25l-59.226-59.971c-76.838,75.956-200.665,75.361-276.769-1.331s-75.746-200.52.8-276.771,200.374-76.131,276.772.267l59.633-59.6A280.206,280.206,0,0,0,176.961,461.413m-138.646,0A421.608,421.608,0,0,0,840.4,643.01L657.253,458.826h-118.9l198.606,199.1a339.782,339.782,0,1,1-36.886-436.8l57.86-57.871A421.529,421.529,0,0,0,38.315,461.413" transform="translate(22.145 38.482)" fill="#413e3b" opacity="0.03"/>
  </g>
</svg>
