<svg xmlns="http://www.w3.org/2000/svg" width="19.375" height="20" viewBox="0 0 19.375 20">
  <path id="Tracé_8859" data-name="Tracé 8859" d="M2258.992,3158.246l-9.062-9.063a.626.626,0,0,0-.884,0l-9.062,9.063a.625.625,0,0,0,.884.884l1.121-1.121v9.116a1.88,1.88,0,0,0,1.875,1.875h11.25a1.88,1.88,0,0,0,1.875-1.875v-9.116l1.121,1.121a.625.625,0,0,0,.884-.884Zm-11.379,9.5v-6.875h3.75v6.875Zm8.125-.625a.627.627,0,0,1-.625.625h-2.5v-7.5a.625.625,0,0,0-.625-.625h-5a.625.625,0,0,0-.625.625v7.5h-2.5a.627.627,0,0,1-.625-.625v-10.366l6.25-6.25,6.25,6.25Z" transform="translate(-2239.801 -3149)" fill="#3a3952"/>
</svg>
