<svg xmlns="http://www.w3.org/2000/svg" width="13.75" height="20" viewBox="0 0 13.75 20">
  <g id="Groupe_216" data-name="Groupe 216" transform="translate(-4208.995 -3509.004)">
    <path id="Tracé_8840" data-name="Tracé 8840" d="M4223.433,3515.879a3.438,3.438,0,1,0-3.437-3.437A3.441,3.441,0,0,0,4223.433,3515.879Zm0-5.625a2.188,2.188,0,1,1-2.187,2.188A2.19,2.19,0,0,1,4223.433,3510.254Z" transform="translate(-7.563)" fill="#3a3952"/>
    <path id="Tracé_8841" data-name="Tracé 8841" d="M4215.87,3533a6.883,6.883,0,0,0-6.875,6.875.625.625,0,0,0,.625.625h2.5v4.375a.625.625,0,0,0,.625.625H4219a.625.625,0,0,0,.625-.625V3540.5h2.5a.625.625,0,0,0,.625-.625A6.883,6.883,0,0,0,4215.87,3533Zm3.125,6.25a.625.625,0,0,0-.625.625v4.375h-5v-4.375a.625.625,0,0,0-.625-.625h-2.465a5.625,5.625,0,0,1,11.181,0Z" transform="translate(0 -16.5)" fill="#3a3952"/>
  </g>
</svg>
