<svg xmlns="http://www.w3.org/2000/svg" width="18.125" height="20" viewBox="0 0 18.125 20">
  <g id="Groupe_236" data-name="Groupe 236" transform="translate(-724.08 -749)">
    <path id="Tracé_8811" data-name="Tracé 8811" d="M735.33,762.125a.625.625,0,0,0-.625.625V766.5a1.252,1.252,0,0,1-1.25,1.25H726.58a1.251,1.251,0,0,1-1.25-1.25v-15a1.251,1.251,0,0,1,1.25-1.25h6.875a1.251,1.251,0,0,1,1.25,1.25v3.75a.625.625,0,0,0,1.25,0V751.5a2.5,2.5,0,0,0-2.5-2.5H726.58a2.5,2.5,0,0,0-2.5,2.5v15a2.5,2.5,0,0,0,2.5,2.5h6.887a2.5,2.5,0,0,0,2.488-2.5h0v-3.75A.625.625,0,0,0,735.33,762.125Z" fill="#3a3952"/>
    <path id="Tracé_8812" data-name="Tracé 8812" d="M753.755,773.735a.6.6,0,0,0-.1-.1h0l-3.125-2.5a.625.625,0,1,0-.781.976l1.734,1.387h-9.781a.625.625,0,0,0,0,1.25h9.781l-1.734,1.387a.625.625,0,1,0,.781.976l3.125-2.5A.624.624,0,0,0,753.755,773.735Z" transform="translate(-11.688 -15.125)" fill="#3a3952"/>
  </g>
</svg>
