<svg xmlns="http://www.w3.org/2000/svg" xmlns:xlink="http://www.w3.org/1999/xlink" width="217.167" height="74.65" viewBox="0 0 217.167 74.65">
  <defs>
    <linearGradient id="linear-gradient" x1="1.032" y1="0.86" x2="0.099" y2="0.197" gradientUnits="objectBoundingBox">
      <stop offset="0.072" stop-color="#e04403" stop-opacity="0.8"/>
      <stop offset="1" stop-color="#e04403"/>
    </linearGradient>
  </defs>
  <g id="Grupo_49" data-name="Grupo 49" transform="translate(-38.315 -39.772)">
    <path id="Trazado_1" data-name="Trazado 1" d="M50.591,77.1A24.806,24.806,0,0,0,92.836,94.742l-5.244-5.31a17.345,17.345,0,1,1,.071-24.6l5.28-5.277A24.81,24.81,0,0,0,50.591,77.1m-12.276,0a37.33,37.33,0,0,0,71.018,16.079L93.117,76.871l-10.528,0L100.174,94.5a30.085,30.085,0,1,1-3.266-38.675l5.123-5.124A37.323,37.323,0,0,0,38.315,77.1" transform="translate(0 0)" fill="url(#linear-gradient)"/>
    <path id="Trazado_2" data-name="Trazado 2" d="M214.843,104c-4.668,0-8.3-3.275-8.3-8.818,0-5.751,3.842-9.1,8.588-9.1,3.4,0,5.079,1.392,5.285,1.6l-1.005,1.6a7.535,7.535,0,0,0-4.153-1.16c-3.507,0-6.343,2.554-6.343,6.86,0,4.228,2.347,7.013,6.189,7.013a6.858,6.858,0,0,0,3.48-.747V96.956H214.9V95.125h5.931v7.246A10.487,10.487,0,0,1,214.843,104" transform="translate(-97.786 -26.914)" fill="#413e3b"/>
    <path id="Trazado_3" data-name="Trazado 3" d="M254.945,103.97c-4.616,0-8.252-3.25-8.252-8.793,0-5.752,3.842-9.1,8.586-9.1,3.4,0,5.081,1.393,5.287,1.6l-1.006,1.6a7.618,7.618,0,0,0-4.152-1.16c-3.506,0-6.342,2.553-6.342,6.859,0,4.2,2.37,6.938,6.163,6.938a8.685,8.685,0,0,0,4.487-1.343l1,1.6a9.1,9.1,0,0,1-5.776,1.806" transform="translate(-121.126 -26.914)" fill="#413e3b"/>
    <path id="Trazado_4" data-name="Trazado 4" d="M307.377,104.136,305.47,98.85h-7.789l-1.907,5.285h-1.11l6.267-17.2H302.3l6.318,17.2Zm-5.8-16.04-3.506,9.722h7.038Z" transform="translate(-149.011 -27.415)" fill="#413e3b"/>
    <path id="Trazado_5" data-name="Trazado 5" d="M340.457,104.458h-9.025c0,3.171,1.651,5.26,4.538,5.26a6.964,6.964,0,0,0,3.661-1.058l.516.877a7.673,7.673,0,0,1-4.255,1.237c-3.482,0-5.569-2.526-5.569-6.291,0-4.023,2.14-6.524,5.519-6.524,2.631,0,4.668,2.038,4.668,5.725,0,.206-.027.49-.052.774m-4.616-5.571c-2.244,0-4.2,1.729-4.358,4.591h7.941c0-2.192-1.082-4.591-3.583-4.591" transform="translate(-169.738 -33.823)" fill="#413e3b"/>
    <path id="Trazado_6" data-name="Trazado 6" d="M362.2,110.826a6.611,6.611,0,0,1-3.921-1.134l.49-.85a6.367,6.367,0,0,0,3.328,1.031c2.062,0,3.326-.929,3.326-2.5a2.139,2.139,0,0,0-.7-1.6c-1.161-1.161-3.842-1.289-5.184-2.63a2.768,2.768,0,0,1-.8-2.089c0-1.935,1.754-3.095,3.895-3.095a6.088,6.088,0,0,1,3.482.98l-.492.826a5.6,5.6,0,0,0-2.887-.877c-1.548,0-2.914.773-2.914,2.14a1.719,1.719,0,0,0,.567,1.393c1.161,1.16,3.843,1.288,5.234,2.682a2.831,2.831,0,0,1,.9,2.166c0,2.269-1.7,3.558-4.331,3.558" transform="translate(-185.989 -33.822)" fill="#413e3b"/>
    <path id="Trazado_7" data-name="Trazado 7" d="M386.252,106.325a3.066,3.066,0,0,1-2.346-.8c-.748-.748-.644-2.089-.644-3.3V94.669H381.12v-.9h2.141V90.26h1.056v3.507h4.048v.9h-4.048v7.506c0,1.829-.1,3.171,2.037,3.171a4.515,4.515,0,0,0,1.805-.387l.335.852a4.546,4.546,0,0,1-2.243.515" transform="translate(-199.266 -29.348)" fill="#413e3b"/>
    <path id="Trazado_8" data-name="Trazado 8" d="M412.691,102.273V94.9c0-1.626,0-2.735-.774-3.508a3.043,3.043,0,0,0-2.192-.722,8.422,8.422,0,0,0-4.023,1.367v10.238h-1.057V83.732H405.7v7.3a7.785,7.785,0,0,1,4.127-1.34,3.829,3.829,0,0,1,2.862.979c.928.929,1.056,1.883,1.056,3.739v7.866Z" transform="translate(-212.94 -25.553)" fill="#413e3b"/>
    <path id="Trazado_9" data-name="Trazado 9" d="M442.061,104.458h-9.026c0,3.171,1.651,5.26,4.539,5.26a6.969,6.969,0,0,0,3.661-1.058l.515.877a7.683,7.683,0,0,1-4.255,1.237c-3.48,0-5.57-2.526-5.57-6.291,0-4.023,2.14-6.524,5.519-6.524,2.631,0,4.668,2.038,4.668,5.725,0,.206-.026.49-.052.774m-4.616-5.571c-2.243,0-4.2,1.729-4.358,4.591h7.941c0-2.192-1.082-4.591-3.583-4.591" transform="translate(-228.798 -33.823)" fill="#413e3b"/>
    <path id="Trazado_10" data-name="Trazado 10" d="M463.9,106.325a3.07,3.07,0,0,1-2.347-.8c-.747-.748-.644-2.089-.644-3.3V94.669h-2.14v-.9h2.14V90.26h1.058v3.507h4.047v.9h-4.047v7.506c0,1.829-.1,3.171,2.037,3.171a4.514,4.514,0,0,0,1.805-.387l.335.852a4.55,4.55,0,0,1-2.243.515" transform="translate(-244.404 -29.348)" fill="#413e3b"/>
    <path id="Trazado_11" data-name="Trazado 11" d="M482.483,87.954a.8.8,0,0,1-.8-.8.781.781,0,0,1,.8-.774.759.759,0,0,1,.773.774.782.782,0,0,1-.773.8m-.542,3.558H483v12.3h-1.058Z" transform="translate(-257.722 -27.092)" fill="#413e3b"/>
    <path id="Trazado_12" data-name="Trazado 12" d="M496.47,110.775c-3.25,0-5.674-2.218-5.674-6.086,0-3.945,2.372-6.729,6.008-6.729a5.508,5.508,0,0,1,3.533,1.134l-.54.8a5.186,5.186,0,0,0-3.07-.9c-2.941,0-4.822,2.271-4.822,5.468,0,3.249,1.959,5.261,4.616,5.261a6.512,6.512,0,0,0,3.48-.953l.491.85a7.315,7.315,0,0,1-4.023,1.16" transform="translate(-263.018 -33.823)" fill="#413e3b"/>
    <path id="Trazado_13" data-name="Trazado 13" d="M521.44,110.826a6.605,6.605,0,0,1-3.92-1.134l.489-.85a6.371,6.371,0,0,0,3.327,1.031c2.062,0,3.326-.929,3.326-2.5a2.139,2.139,0,0,0-.7-1.6c-1.161-1.161-3.842-1.289-5.184-2.63a2.773,2.773,0,0,1-.8-2.089c0-1.935,1.753-3.095,3.894-3.095a6.1,6.1,0,0,1,3.483.98l-.493.826a5.6,5.6,0,0,0-2.887-.877c-1.548,0-2.914.773-2.914,2.14a1.719,1.719,0,0,0,.568,1.393c1.161,1.16,3.842,1.288,5.233,2.682a2.832,2.832,0,0,1,.9,2.166c0,2.269-1.7,3.558-4.332,3.558" transform="translate(-278.553 -33.822)" fill="#413e3b"/>
    <path id="Trazado_14" data-name="Trazado 14" d="M67.632,94.473a24.806,24.806,0,0,0,42.246,17.645l-5.244-5.31a17.345,17.345,0,1,1,.071-24.6l5.28-5.277A24.81,24.81,0,0,0,67.632,94.473" transform="translate(-17.041 -17.375)" fill="#e04403"/>
    <path id="Trazado_15" data-name="Trazado 15" d="M214.843,104c-4.668,0-8.3-3.275-8.3-8.818,0-5.751,3.842-9.1,8.588-9.1,3.4,0,5.079,1.392,5.285,1.6l-1.005,1.6a7.535,7.535,0,0,0-4.153-1.16c-3.507,0-6.343,2.554-6.343,6.86,0,4.228,2.347,7.013,6.189,7.013a6.858,6.858,0,0,0,3.48-.747V96.956H214.9V95.125h5.931v7.246A10.487,10.487,0,0,1,214.843,104" transform="translate(-97.786 -26.914)" fill="#413e3b"/>
    <path id="Trazado_16" data-name="Trazado 16" d="M254.945,103.97c-4.616,0-8.252-3.25-8.252-8.793,0-5.752,3.842-9.1,8.586-9.1,3.4,0,5.081,1.393,5.287,1.6l-1.006,1.6a7.618,7.618,0,0,0-4.152-1.16c-3.506,0-6.342,2.553-6.342,6.859,0,4.2,2.37,6.938,6.163,6.938a8.685,8.685,0,0,0,4.487-1.343l1,1.6a9.1,9.1,0,0,1-5.776,1.806" transform="translate(-121.126 -26.914)" fill="#413e3b"/>
    <path id="Trazado_17" data-name="Trazado 17" d="M307.377,104.136,305.47,98.85h-7.789l-1.907,5.285h-1.11l6.267-17.2H302.3l6.318,17.2Zm-5.8-16.04-3.506,9.722h7.038Z" transform="translate(-149.011 -27.415)" fill="#413e3b"/>
    <path id="Trazado_18" data-name="Trazado 18" d="M340.457,104.458h-9.025c0,3.171,1.651,5.26,4.538,5.26a6.964,6.964,0,0,0,3.661-1.058l.516.877a7.673,7.673,0,0,1-4.255,1.237c-3.482,0-5.569-2.526-5.569-6.291,0-4.023,2.14-6.524,5.519-6.524,2.631,0,4.668,2.038,4.668,5.725,0,.206-.027.49-.052.774m-4.616-5.571c-2.244,0-4.2,1.729-4.358,4.591h7.941c0-2.192-1.082-4.591-3.583-4.591" transform="translate(-169.738 -33.823)" fill="#413e3b"/>
    <path id="Trazado_19" data-name="Trazado 19" d="M362.2,110.826a6.611,6.611,0,0,1-3.921-1.134l.49-.85a6.367,6.367,0,0,0,3.328,1.031c2.062,0,3.326-.929,3.326-2.5a2.139,2.139,0,0,0-.7-1.6c-1.161-1.161-3.842-1.289-5.184-2.63a2.768,2.768,0,0,1-.8-2.089c0-1.935,1.754-3.095,3.895-3.095a6.088,6.088,0,0,1,3.482.98l-.492.826a5.6,5.6,0,0,0-2.887-.877c-1.548,0-2.914.773-2.914,2.14a1.719,1.719,0,0,0,.567,1.393c1.161,1.16,3.843,1.288,5.234,2.682a2.831,2.831,0,0,1,.9,2.166c0,2.269-1.7,3.558-4.331,3.558" transform="translate(-185.989 -33.822)" fill="#413e3b"/>
    <path id="Trazado_20" data-name="Trazado 20" d="M386.252,106.325a3.066,3.066,0,0,1-2.346-.8c-.748-.748-.644-2.089-.644-3.3V94.669H381.12v-.9h2.141V90.26h1.056v3.507h4.048v.9h-4.048v7.506c0,1.829-.1,3.171,2.037,3.171a4.515,4.515,0,0,0,1.805-.387l.335.852a4.546,4.546,0,0,1-2.243.515" transform="translate(-199.266 -29.348)" fill="#413e3b"/>
    <path id="Trazado_21" data-name="Trazado 21" d="M412.691,102.273V94.9c0-1.626,0-2.735-.774-3.508a3.043,3.043,0,0,0-2.192-.722,8.422,8.422,0,0,0-4.023,1.367v10.238h-1.057V83.732H405.7v7.3a7.785,7.785,0,0,1,4.127-1.34,3.829,3.829,0,0,1,2.862.979c.928.929,1.056,1.883,1.056,3.739v7.866Z" transform="translate(-212.94 -25.553)" fill="#413e3b"/>
    <path id="Trazado_22" data-name="Trazado 22" d="M442.061,104.458h-9.026c0,3.171,1.651,5.26,4.539,5.26a6.969,6.969,0,0,0,3.661-1.058l.515.877a7.683,7.683,0,0,1-4.255,1.237c-3.48,0-5.57-2.526-5.57-6.291,0-4.023,2.14-6.524,5.519-6.524,2.631,0,4.668,2.038,4.668,5.725,0,.206-.026.49-.052.774m-4.616-5.571c-2.243,0-4.2,1.729-4.358,4.591h7.941c0-2.192-1.082-4.591-3.583-4.591" transform="translate(-228.798 -33.823)" fill="#413e3b"/>
    <path id="Trazado_23" data-name="Trazado 23" d="M463.9,106.325a3.07,3.07,0,0,1-2.347-.8c-.747-.748-.644-2.089-.644-3.3V94.669h-2.14v-.9h2.14V90.26h1.058v3.507h4.047v.9h-4.047v7.506c0,1.829-.1,3.171,2.037,3.171a4.514,4.514,0,0,0,1.805-.387l.335.852a4.55,4.55,0,0,1-2.243.515" transform="translate(-244.404 -29.348)" fill="#413e3b"/>
    <path id="Trazado_24" data-name="Trazado 24" d="M482.483,87.954a.8.8,0,0,1-.8-.8.781.781,0,0,1,.8-.774.759.759,0,0,1,.773.774.782.782,0,0,1-.773.8m-.542,3.558H483v12.3h-1.058Z" transform="translate(-257.722 -27.092)" fill="#413e3b"/>
    <path id="Trazado_25" data-name="Trazado 25" d="M496.47,110.775c-3.25,0-5.674-2.218-5.674-6.086,0-3.945,2.372-6.729,6.008-6.729a5.508,5.508,0,0,1,3.533,1.134l-.54.8a5.186,5.186,0,0,0-3.07-.9c-2.941,0-4.822,2.271-4.822,5.468,0,3.249,1.959,5.261,4.616,5.261a6.512,6.512,0,0,0,3.48-.953l.491.85a7.315,7.315,0,0,1-4.023,1.16" transform="translate(-263.018 -33.823)" fill="#413e3b"/>
    <path id="Trazado_26" data-name="Trazado 26" d="M521.44,110.826a6.605,6.605,0,0,1-3.92-1.134l.489-.85a6.371,6.371,0,0,0,3.327,1.031c2.062,0,3.326-.929,3.326-2.5a2.139,2.139,0,0,0-.7-1.6c-1.161-1.161-3.842-1.289-5.184-2.63a2.773,2.773,0,0,1-.8-2.089c0-1.935,1.753-3.095,3.894-3.095a6.1,6.1,0,0,1,3.483.98l-.493.826a5.6,5.6,0,0,0-2.887-.877c-1.548,0-2.914.773-2.914,2.14a1.719,1.719,0,0,0,.568,1.393c1.161,1.16,3.842,1.288,5.233,2.682a2.832,2.832,0,0,1,.9,2.166c0,2.269-1.7,3.558-4.332,3.558" transform="translate(-278.553 -33.822)" fill="#413e3b"/>
    <g id="Grupo_2" data-name="Grupo 2" transform="translate(249.231 58.027)">
      <g id="Grupo_1" data-name="Grupo 1" transform="translate(0)">
        <path id="Trazado_27" data-name="Trazado 27" d="M542.032,86.494a3.089,3.089,0,0,1,.416-1.559,3.047,3.047,0,0,1,1.143-1.147,3.131,3.131,0,0,1,3.125,0,3.052,3.052,0,0,1,1.147,1.143,3.127,3.127,0,1,1-5.831,1.567Zm.511,0a2.612,2.612,0,0,0,3.928,2.259,2.6,2.6,0,0,0,.954-.956,2.615,2.615,0,0,0-3.566-3.572,2.6,2.6,0,0,0-.958.952A2.551,2.551,0,0,0,542.543,86.494Zm3.882-.74a.958.958,0,0,1-.636.968l.985,1.65H545.9l-.8-1.438h-.374v1.438h-.786V84.619h1.089a1.633,1.633,0,0,1,1.06.283A1.05,1.05,0,0,1,546.425,85.754Zm-1.7.577h.287a.663.663,0,0,0,.465-.145.536.536,0,0,0,.158-.415.5.5,0,0,0-.151-.418.781.781,0,0,0-.48-.119h-.278Z" transform="translate(-542.032 -83.368)" fill="#413e3b"/>
      </g>
    </g>
  </g>
</svg>
