<svg xmlns="http://www.w3.org/2000/svg" width="16.641" height="16.641" viewBox="0 0 16.641 16.641">
  <path id="Tracé_8779" data-name="Tracé 8779" d="M8.32-5.82l7.5-7.5-1.172-1.211L8.32-8.2,5.352-11.172,4.18-10Zm-4.2-10.059A8.014,8.014,0,0,1,10-18.32a8.014,8.014,0,0,1,5.879,2.441A8.014,8.014,0,0,1,18.32-10a8.014,8.014,0,0,1-2.441,5.879A8.014,8.014,0,0,1,10-1.68,8.014,8.014,0,0,1,4.121-4.121,8.014,8.014,0,0,1,1.68-10,8.014,8.014,0,0,1,4.121-15.879Z" transform="translate(-1.68 18.32)" fill="#ff8948"/>
</svg>
