<svg xmlns="http://www.w3.org/2000/svg" width="15" height="15" viewBox="0 0 15 15">
  <path id="Tracé_8781" data-name="Tracé 8781" d="M8.32-5.82l7.5-7.5-1.172-1.211L8.32-8.2,5.352-11.172,4.18-10Zm7.5-11.68a1.59,1.59,0,0,1,1.191.508A1.641,1.641,0,0,1,17.5-15.82V-4.18a1.641,1.641,0,0,1-.488,1.172A1.59,1.59,0,0,1,15.82-2.5H4.18a1.59,1.59,0,0,1-1.191-.508A1.641,1.641,0,0,1,2.5-4.18V-15.82a1.641,1.641,0,0,1,.488-1.172A1.59,1.59,0,0,1,4.18-17.5Z" transform="translate(-2.5 17.5)" fill="#df6c3b"/>
</svg>
