<svg xmlns="http://www.w3.org/2000/svg" width="16.059" height="14.484" viewBox="0 0 16.059 14.484">
  <g id="Groupe_161" data-name="Groupe 161" transform="translate(-1088.47 -549.758)">
    <path id="Polygone_4_-_Contour" data-name="Polygone 4 - Contour" d="M8,.266a1.731,1.731,0,0,1,1.519.882L15.8,12.132a1.75,1.75,0,0,1-1.519,2.618H1.723A1.75,1.75,0,0,1,.2,12.132L6.481,1.147A1.731,1.731,0,0,1,8,.266ZM14.277,13.25a.25.25,0,0,0,.217-.374L8.217,1.892a.25.25,0,0,0-.434,0L1.506,12.876a.25.25,0,0,0,.217.374Z" transform="translate(1088.5 549.492)" fill="#f9413a"/>
    <path id="Ligne_15" data-name="Ligne 15" d="M0,4A1,1,0,0,1-1,3V0A1,1,0,0,1,0-1,1,1,0,0,1,1,0V3A1,1,0,0,1,0,4Z" transform="translate(1096.5 554.992)" fill="#f9413a"/>
    <path id="Ligne_16" data-name="Ligne 16" d="M0,1.153a1,1,0,0,1-1-1V0A1,1,0,0,1,0-1,1,1,0,0,1,1,0V.153A1,1,0,0,1,0,1.153Z" transform="translate(1096.5 560.992)" fill="#f9413a"/>
  </g>
</svg>
