<svg xmlns="http://www.w3.org/2000/svg" width="27.067" height="16.86" viewBox="0 0 27.067 16.86">
  <g id="Groupe_160" data-name="Groupe 160" transform="translate(-2356.764 -2826.917)">
    <path id="Rectangle_4616" data-name="Rectangle 4616" d="M2.6-.65H12.961A3.253,3.253,0,0,1,16.21,2.6V12.961a3.253,3.253,0,0,1-3.249,3.249H2.6A3.253,3.253,0,0,1-.65,12.961V2.6A3.253,3.253,0,0,1,2.6-.65ZM12.961,14.91a1.951,1.951,0,0,0,1.949-1.949V2.6A1.951,1.951,0,0,0,12.961.65H2.6A1.951,1.951,0,0,0,.65,2.6V12.961A1.951,1.951,0,0,0,2.6,14.91Z" transform="translate(2357.414 2827.567)" fill="#fff"/>
    <path id="Tracé_8759" data-name="Tracé 8759" d="M319.74,6193.051a1.35,1.35,0,0,1-.615-.15l-.04-.022-1.232-.75a.033.033,0,0,0-.024,0l-1.205.742-.039.022a1.337,1.337,0,0,1-1.554-.223,1.326,1.326,0,0,1-.409-.964v-4.14a.65.65,0,0,1,.65-.65h5.159a.65.65,0,0,1,.65.65v4.145A1.344,1.344,0,0,1,319.74,6193.051Zm-.009-1.3h.009s.042,0,.042-.042v-3.495h-3.859v3.49a.032.032,0,0,0,.011.027.047.047,0,0,0,.03.014h.008l1.208-.743.039-.022a1.346,1.346,0,0,1,1.235,0l.042.023Z" transform="translate(2047.354 -3359.998)" fill="#fff"/>
    <path id="Tracé_8760" data-name="Tracé 8760" d="M333.782,6220.724a.65.65,0,0,1-.65-.65v-13.943l-2.463,2.567a.65.65,0,1,1-.938-.9l3.582-3.734a.65.65,0,0,1,1.119.45v15.56A.65.65,0,0,1,333.782,6220.724Z" transform="translate(2713.381 9047.641) rotate(180)" fill="#fff"/>
    <path id="Tracé_8761" data-name="Tracé 8761" d="M326.479,6220.724a.65.65,0,0,1-.65-.65v-15.56a.65.65,0,0,1,1.13-.439l3.495,3.819a.65.65,0,0,1-.959.878l-2.365-2.584v13.887A.65.65,0,0,1,326.479,6220.724Z" transform="translate(2706.077 9047.641) rotate(180)" fill="#fff"/>
  </g>
</svg>
