<svg xmlns="http://www.w3.org/2000/svg" width="16.641" height="16.641" viewBox="0 0 16.641 16.641">
  <path id="Tracé_8778" data-name="Tracé 8778" d="M5.293-5.293A6.425,6.425,0,0,0,10-3.32a6.425,6.425,0,0,0,4.707-1.973A6.425,6.425,0,0,0,16.68-10a6.425,6.425,0,0,0-1.973-4.707A6.425,6.425,0,0,0,10-16.68a6.425,6.425,0,0,0-4.707,1.973A6.425,6.425,0,0,0,3.32-10,6.425,6.425,0,0,0,5.293-5.293ZM4.121-15.879A8.014,8.014,0,0,1,10-18.32a8.014,8.014,0,0,1,5.879,2.441A8.014,8.014,0,0,1,18.32-10a8.014,8.014,0,0,1-2.441,5.879A8.014,8.014,0,0,1,10-1.68,8.014,8.014,0,0,1,4.121-4.121,8.014,8.014,0,0,1,1.68-10,8.014,8.014,0,0,1,4.121-15.879Z" transform="translate(-1.68 18.32)" fill="#878793"/>
</svg>
